HIERARCHY
ROOT Hips
{
  OFFSET 37.4377 37.1247 6.03721
  CHANNELS 6 Xposition Yposition Zposition Zrotation Xrotation Yrotation
  JOINT ToSpine
  {
    OFFSET -0.0105055 1.38907 -7.13956
    CHANNELS 3 Zrotation Xrotation Yrotation
    JOINT Spine
    {
      OFFSET 0.0105055 10 1
      CHANNELS 3 Zrotation Xrotation Yrotation
      JOINT Spine1
      {
        OFFSET 0 12 1.60637
        CHANNELS 3 Zrotation Xrotation Yrotation
        JOINT Neck
        {
          OFFSET 0 27 2.26658
          CHANNELS 3 Zrotation Xrotation Yrotation
          JOINT Head
          {
            OFFSET 0 9 2.12705
            CHANNELS 3 Zrotation Xrotation Yrotation
            End Site
            {
              OFFSET 0 11 2
            }
          }
        }
        JOINT LeftShoulder
        {
          OFFSET 8 19.6109 2.86452
          CHANNELS 3 Zrotation Xrotation Yrotation
          JOINT LeftArm
          {
            OFFSET 12 1 0.681055
            CHANNELS 3 Zrotation Xrotation Yrotation
            JOINT LeftForeArm
            {
              OFFSET 19 0 -1.52608
              CHANNELS 3 Zrotation Xrotation Yrotation
              JOINT LeftHand
              {
                OFFSET 23 0 0
                CHANNELS 3 Zrotation Xrotation Yrotation
                End Site
                {
                  OFFSET 10 0 0
                }
              }
            }
          }
        }
        JOINT RightShoulder
        {
          OFFSET -8 19.6109 2.86452
          CHANNELS 3 Zrotation Xrotation Yrotation
          JOINT RightArm
          {
            OFFSET -12 1 0.681055
            CHANNELS 3 Zrotation Xrotation Yrotation
            JOINT RightForeArm
            {
              OFFSET -19 0 -1.52608
              CHANNELS 3 Zrotation Xrotation Yrotation
              JOINT RightHand
              {
                OFFSET -23 0 0
                CHANNELS 3 Zrotation Xrotation Yrotation
                End Site
                {
                  OFFSET -10 0 0
                }
              }
            }
          }
        }
      }
    }
  }
  JOINT LeftUpLeg
  {
    OFFSET 9 -7.17245 0
    CHANNELS 3 Zrotation Xrotation Yrotation
    JOINT LeftLeg
    {
      OFFSET 0 -44.1113 0
      CHANNELS 3 Zrotation Xrotation Yrotation
      JOINT LeftFoot
      {
        OFFSET 0 -36.1829 0
        CHANNELS 3 Zrotation Xrotation Yrotation
        JOINT LeftToeBase
        {
          OFFSET 0 -4.84184 13
          CHANNELS 3 Zrotation Xrotation Yrotation
          End Site
          {
            OFFSET 0 1 6
          }
        }
      }
    }
  }
  JOINT RightUpLeg
  {
    OFFSET -9 -7.17245 0
    CHANNELS 3 Zrotation Xrotation Yrotation
    JOINT RightLeg
    {
      OFFSET 0 -44.0551 0
      CHANNELS 3 Zrotation Xrotation Yrotation
      JOINT RightFoot
      {
        OFFSET 0 -36.1469 0
        CHANNELS 3 Zrotation Xrotation Yrotation
        JOINT RightToeBase
        {
          OFFSET 0 -4.92256 13
          CHANNELS 3 Zrotation Xrotation Yrotation
          End Site
          {
            OFFSET 0 1 6
          }
        }
      }
    }
  }
}
MOTION
Frames:	19
Frame Time:	0.0333333
37.4227 37.1318 6.04496 -1.79677 -2.44075 -3.7807 0 0 0 5.25607 55.4813 -0.303007 -4.51327 -0.958118 4.06555 7.51885 -10.9625 -2.8679 -5.64122 -5.77734 -0.2476 -16.5139 4.66904 -16.3919 -17.3367 16.6125 -82.5233 -18.6949 35.8264 5.40244 1.57756 -0.107088 -6.65599 16.8596 6.15626 22.2066 15.0389 14.6374 60.7735 7.6327 20.6933 0.640877 -8.98868 0.00400074 -0.0521401 84.0357 -48.8999 101.604 180 27.8201 175.06 44.8823 -57.1905 25.3757 -0.121246 1.48825 0.100122 -70.2009 -61.029 -97.9565 -179.998 30.4136 151.65 -30.6779 -61.8209 -18.6543 4.26523 -16.1407 -4.4077 
37.4221 37.1308 6.00795 -2.01894 -2.52516 -3.81492 0 0 0 5.65736 55.4042 -0.453993 -4.60663 -0.66419 4.16457 7.05086 -11.3584 -2.50978 -4.96542 -5.76982 -0.134006 -16.1854 4.6298 -16.4818 -14.6351 17.8225 -83.3831 -17.6483 22.8154 4.66028 -0.0968566 0.00795831 -2.26982 16.6058 6.05311 22.0352 13.6855 14.9409 62.0917 8.85329 19.4631 -0.482347 -9.15727 -0.00235186 0.0384414 84.3079 -48.9926 101.48 -179.997 27.831 175.139 44.9413 -57.0553 25.3426 -0.159678 1.33151 0.308383 -69.4207 -60.997 -97.3103 179.987 30.4062 152.617 -30.5674 -62.5574 -18.8432 3.92247 -14.6925 -4.8663 
37.5515 37.0635 5.83522 -2.15753 -3.11332 -2.29083 0 0 0 8.73784 55.694 -3.02565 -5.10402 -0.541522 3.34679 6.2197 -11.2523 -1.50009 -3.19635 -6.96205 0.329542 -16.4381 4.66565 -16.4358 -13.3637 18.2073 -83.5477 -17.2799 17.2211 4.44628 -0.354621 0.00236001 -0.306402 16.8245 6.1772 22.3269 14.8283 14.2965 61.394 8.4459 20.8729 -0.52336 -7.30639 -0.0218921 0.330608 84.2176 -51.5945 100.897 179.999 28.1879 176.573 45.0311 -57.0961 25.4154 -0.222862 3.2678 -0.0441731 -68.5778 -58.8363 -95.9113 -179.994 29.7212 155.788 -30.5974 -65.1306 -19.823 2.87859 -10.0847 -5.09419 
37.535 37.0611 5.85404 -2.11721 -3.11103 -2.46395 0 0 0 8.4398 55.5809 -2.80265 -5.20613 -0.333154 3.46034 6.62966 -11.3494 -1.67066 -3.63891 -6.84209 0.320635 -16.0868 4.62736 -16.5493 -14.6974 17.9033 -83.2273 -17.2892 20.9915 4.67249 -0.833691 0.00942234 -1.3449 16.8706 6.19934 22.3711 16.2505 13.7811 60.135 6.90032 20.958 0.980547 -5.57629 -0.0200325 0.410966 84.5555 -51.1549 100.8 180 27.9817 175.783 44.7313 -58.3964 25.9012 0.0865945 8.25457 -1.97578 -68.5881 -59.1503 -96.0022 -180 29.8405 155.109 -30.7847 -64.5967 -19.7445 3.11993 -11.1236 -5.43403 
37.5185 37.0576 5.83333 -2.07613 -3.10659 -2.42077 0 0 0 8.25245 55.6484 -2.66924 -4.97738 -0.460912 3.45608 6.42371 -11.1956 -1.62685 -3.56382 -7.09512 0.309597 -15.9605 4.62705 -16.6483 -15.3492 17.8621 -83.0554 -17.1123 20.5455 4.69256 -0.828081 0.0116729 -1.57508 16.7064 6.14588 22.3151 16.0538 13.9654 60.3746 7.27381 20.2494 0.627544 -5.31271 -0.0417419 0.891444 84.481 -51.2738 100.871 180 28.0207 175.996 44.6994 -58.0856 25.7175 -0.287151 4.32736 -0.00376417 -68.6045 -59.1315 -96.0116 180 29.812 155.281 -30.709 -64.7066 -19.7354 3.08483 -10.9518 -5.5243 
37.5258 37.0472 5.83039 -2.1606 -3.08304 -2.3757 0 0 0 8.42484 55.6569 -2.77531 -4.95311 -0.560957 3.40679 6.38637 -11.1349 -1.62503 -3.53285 -7.10894 0.300645 -16.3027 4.66602 -16.5432 -14.6745 17.9099 -83.1514 -17.2224 20.2487 4.65059 -0.844345 0.0130896 -1.39821 16.8087 6.18545 22.3748 16.7955 13.6176 59.9301 6.82816 21.6891 0.902175 -4.01337 -0.0241707 0.68848 84.2028 -51.5347 100.964 180 28.2174 175.945 44.7384 -56.6192 25.0005 -0.636634 0.659088 2.46616 -68.674 -59.0592 -96.1179 180 29.788 155.416 -30.4775 -64.8008 -19.6173 3.0159 -10.673 -5.28198 
37.5541 37.0462 5.8595 -2.17515 -3.13966 -2.45077 0 0 0 8.37612 55.5837 -2.64864 -4.92365 -0.323281 3.51203 6.27437 -11.3922 -1.62795 -3.54602 -6.96319 0.265385 -16.0311 4.64351 -16.6622 -14.9839 17.8491 -83.2164 -17.1555 20.0703 4.65874 -0.664804 0.0144042 -1.63014 16.576 6.0875 22.2044 16.3237 13.9762 60.212 6.97431 20.5893 0.962968 -3.78533 -0.0180385 0.574568 84.0793 -51.3561 100.715 -180 28.0848 176.094 45.0847 -57.4009 25.6034 -0.530129 1.0378 1.74904 -68.4494 -59.1033 -95.9358 180 29.8249 154.997 -30.7295 -64.7022 -19.7472 3.09653 -11.025 -5.3549 
37.5436 37.072 5.84846 -2.17944 -3.17699 -2.44619 0 0 0 8.51051 55.7987 -2.83661 -5.06869 -0.634265 3.42075 6.44748 -11.0484 -1.62999 -3.55034 -7.15704 0.315261 -16.3951 4.67662 -16.5151 -14.59 17.935 -83.0979 -17.2094 20.064 4.64383 -0.598724 0.0156208 -1.6774 16.8846 6.23472 22.5011 15.6854 14.5249 60.074 7.27253 19.3099 0.89563 -5.28428 -0.0163474 0.342219 84.3846 -51.2083 100.605 180 27.9634 175.752 44.9131 -58.3531 25.9881 -0.110618 4.09669 -0.635078 -68.467 -59.0277 -95.7935 -180 29.7803 155.536 -30.3121 -64.8673 -19.5324 2.97437 -10.5121 -5.10234 
37.5539 37.0468 5.86269 -2.17019 -3.2507 -2.43827 0 0 0 8.47313 55.7841 -2.79467 -4.98719 -0.547181 3.42851 6.40422 -11.1597 -1.63537 -3.53633 -7.06426 0.30105 -16.2879 4.67358 -16.5865 -14.8992 17.8931 -83.0523 -17.1519 20.2056 4.66698 -0.686664 0.0167406 -1.53994 16.8134 6.1911 22.393 16.3018 14.012 59.9907 6.89443 21.7528 1.03461 -3.88564 -0.00821606 0.258243 83.8595 -51.3436 100.467 180 28.0702 175.763 45.0014 -57.2155 25.46 -0.672448 0.821268 2.48757 -68.355 -59.0245 -95.7511 180 29.8053 155.166 -30.7689 -64.5314 -19.7097 3.15696 -11.2964 -5.37567 
37.5312 37.0407 5.84739 -2.1216 -3.21782 -2.42195 0 0 0 8.19094 55.6648 -2.54036 -4.73763 -0.372414 3.51232 6.06732 -11.2643 -1.63977 -3.44772 -7.08683 0.218116 -16.2157 4.69227 -16.7222 -14.9129 17.8565 -83.1144 -17.1374 19.9256 4.65666 -0.570035 0.0177614 -1.54865 16.4758 6.07069 22.2345 15.8818 14.5182 60.2981 7.15892 20.1914 1.02244 -5.2707 -0.00640413 0.136024 84.242 -51.3117 100.651 -180 27.9865 176.176 44.9252 -57.9864 25.8077 -0.197626 3.14859 -0.0200074 -68.3491 -59.1231 -95.8165 179.999 29.8336 154.775 -30.7866 -64.6573 -19.7675 3.15748 -11.2873 -5.42852 
37.5401 37.0508 5.8377 -2.24631 -3.17625 -2.37296 0 0 0 8.56588 55.6811 -2.8265 -4.8845 -0.458091 3.41593 6.21574 -11.1701 -1.64038 -3.40431 -7.12953 0.235147 -16.3284 4.6853 -16.6039 -14.6586 17.831 -83.0785 -17.1682 20.0951 4.65685 -0.686201 0.0186853 -1.5317 16.7865 6.18457 22.394 16.66 13.6707 59.9557 6.79004 22.4705 0.983141 -3.70107 -0.00768788 0.248666 84.2308 -51.4679 100.766 180 28.1526 176.186 44.6884 -57.0026 25.1617 -0.433163 2.25503 1.05644 -68.3109 -58.9585 -95.6942 180 29.726 155.854 -30.2207 -65.1386 -19.5718 2.87518 -10.0648 -5.12758 
37.5347 37.0384 5.83373 -2.12575 -3.19004 -2.39644 0 0 0 8.41217 55.6242 -2.7379 -4.92526 -0.330612 3.45124 6.20647 -11.3057 -1.63699 -3.3485 -6.98056 0.217935 -16.3714 4.66882 -16.501 -14.8061 17.825 -83.226 -17.1832 20.3108 4.65815 -0.649571 0.0195106 -1.7209 16.7553 6.16023 22.3255 16.4365 13.6556 59.9609 6.66668 22.2351 1.18823 -2.99639 -0.0142688 0.512654 84.2978 -51.3947 100.797 180 28.0468 176.351 44.8171 -57.8625 25.6784 -0.219367 4.96582 -0.427827 -68.5237 -59.1039 -95.9402 -180 29.8071 155.018 -30.7074 -64.6326 -19.707 3.11522 -11.1026 -5.43541 
37.5384 37.0422 5.84297 -2.10638 -3.16413 -2.40556 0 0 0 8.33803 55.5523 -2.66098 -4.82155 -0.245336 3.45219 6.09246 -11.3418 -1.62752 -3.31229 -6.95731 0.1974 -16.4297 4.68177 -16.51 -14.6181 17.8627 -83.281 -17.1574 19.7312 4.64123 -0.441173 0.0202405 -1.83399 16.6013 6.11666 22.2993 16.3833 13.8283 60.0759 6.88682 20.5842 1.01732 -4.29485 -0.0217927 0.596982 83.9578 -51.4536 100.737 -180 28.1354 175.937 44.888 -56.9533 25.2588 -0.592688 0.107355 2.48607 -68.564 -59.0872 -95.9391 -180 29.7711 155.171 -30.5992 -64.7827 -19.6911 3.05349 -10.8361 -5.32267 
37.5156 37.0336 5.83861 -2.05881 -3.20226 -2.42536 0 0 0 8.28222 55.7057 -2.67638 -4.86972 -0.446001 3.42659 6.10429 -11.1728 -1.63469 -3.20577 -6.93011 0.184657 -16.4937 4.69571 -16.5196 -14.532 17.8727 -83.1723 -17.2028 20.0606 4.64461 -0.582114 0.0208778 -1.70751 16.7032 6.1397 22.2925 16.4955 13.7836 60.0615 6.86616 21.2909 0.987831 -4.48387 -0.00693422 0.183781 83.9755 -51.3523 100.686 180 28.1238 175.739 44.6892 -56.9906 25.1572 -0.528812 1.25343 1.77899 -68.5778 -59.1115 -95.8409 180 29.7468 155.111 -30.4842 -64.9005 -19.6588 3.01883 -10.7358 -4.90173 
37.4982 37.0336 5.85403 -2.04175 -3.16609 -2.33416 0 0 0 8.08722 55.641 -2.49446 -4.50446 -0.354362 3.4472 5.68766 -11.3366 -1.65183 -3.18867 -6.8592 0.0753113 -17.0321 4.74918 -16.3274 -14.1482 17.8141 -83.4233 -17.321 20.3328 4.62356 -0.592916 0.0214165 -1.91335 16.3544 6.034 22.2027 16.445 13.9217 60.1518 6.88281 21.3795 0.971123 -4.09808 -0.0138204 0.405698 84.188 -51.4167 100.737 -180 28.0604 176.023 44.861 -57.6876 25.6153 -0.143372 3.23029 -0.244212 -68.472 -59.0747 -95.8688 180 29.7645 155.031 -30.5629 -64.8181 -19.6804 3.10152 -11.0365 -5.46119 
37.4932 37.0382 5.86065 -2.01675 -3.2006 -2.29999 0 0 0 8.05073 55.6686 -2.57726 -4.57334 -0.398905 3.34225 6.08575 -11.0119 -1.63742 -3.35154 -7.12562 0.204484 -16.641 4.70758 -16.454 -14.5416 17.8624 -83.1068 -17.1863 20.1577 4.65614 -0.472183 0.021863 -1.96064 16.6968 6.1798 22.4632 15.9638 14.1238 60.0503 6.88291 21.5382 1.14031 -4.64067 0.0105337 -0.267231 84.332 -51.3217 100.628 180 28.0108 175.82 44.7614 -58.2605 25.8462 -0.0873064 4.62529 -0.761521 -68.5979 -59.0166 -95.865 -180 29.6792 155.281 -30.2055 -64.8053 -19.439 3.0438 -10.808 -5.21149 
37.4702 37.0565 5.87061 -1.96917 -3.14818 -2.33715 0 0 0 7.89111 55.6164 -2.436 -4.47695 -0.34254 3.38254 5.92691 -11.2112 -1.60653 -3.26303 -6.99301 0.181656 -16.7383 4.71188 -16.3978 -14.3832 17.8165 -83.2886 -17.2687 20.4028 4.64341 -0.545631 0.0222193 -1.73804 16.5036 6.10066 22.3298 16.2454 13.8646 60.2397 7.0324 20.9167 0.85216 -4.37718 -0.00872278 0.22409 83.8469 -51.4193 100.647 -180 28.1741 175.704 44.6869 -56.7633 25.0419 -0.411749 2.56858 0.945307 -68.5132 -59.0773 -95.7757 180 29.7196 155.259 -30.3023 -64.9575 -19.5593 3.04738 -10.8222 -5.22377 
37.4689 37.0732 5.87962 -1.95073 -3.14973 -2.30545 0 0 0 7.8112 55.701 -2.33731 -4.276 -0.423106 3.40808 5.55917 -11.355 -1.61174 -3.12143 -6.76564 0.078699 -17.1794 4.76555 -16.2834 -13.7256 17.8822 -83.4529 -17.3362 19.9044 4.59097 -0.411968 0.0224793 -1.80434 16.2081 6.011 22.2533 16.006 14.2209 60.4767 7.28779 20.6 0.684746 -4.61042 -0.00505089 0.154188 83.8308 -51.4395 100.607 -180 28.158 176.01 44.9058 -57.0785 25.3324 -0.388352 1.16324 1.25512 -68.4332 -59.0319 -95.7132 180 29.7346 155.169 -30.4679 -64.985 -19.6793 3.05624 -10.852 -5.29533 
37.4688 37.0751 5.87864 -1.9725 -3.15695 -2.30776 0 0 0 8.03702 55.7154 -2.58592 -4.58409 -0.434273 3.33022 6.02655 -11.3099 -1.66832 -3.28486 -6.83508 0.145273 -16.6717 4.6818 -16.3234 -14.5942 17.8946 -83.167 -17.1821 20.3354 4.66698 -0.45545 0.0226485 -1.74969 16.5412 6.1215 22.3786 15.3008 14.7603 60.6469 7.64502 19.7762 0.523311 -6.47154 0.00334034 -0.0600858 84.0099 -51.4082 100.59 -180 28.1583 175.752 44.7102 -57.2856 25.3191 -0.370013 1.74795 0.990449 -68.3978 -59.0169 -95.6394 180 29.6918 155.279 -30.4146 -65.1792 -19.7161 2.95505 -10.4218 -5.1331 
